<svg xmlns="http://www.w3.org/2000/svg" viewBox="0 0 128 128">
  <defs>
    <linearGradient id="g" x1="0" y1="0" x2="1" y2="1">
      <stop offset="0%" stop-color="#00a8e8"/>
      <stop offset="100%" stop-color="#0077be"/>
    </linearGradient>
  </defs>
  <rect width="128" height="128" rx="28" fill="url(#g)"/>
  <g transform="translate(12,18)">
    <path d="M84 44c-9 0-16 7-16 16 0 2 .3 3 .8 5H36c-11 0-20-9-20-20 0-8 5-15 12-18 2-13 14-23 27-23 9 0 17 4 22 10 9 0 17 7 17 16 0 3-1 6-2 8 7 2 12 8 12 16 0 11-9 20-20 20H58.5c.5-2 .8-3 .8-5 0-9-7-16-16-16-6 0-11 3-14 8" fill="#dff6ff" opacity=".35"/>
  </g>
  <g transform="translate(8,22)">
    <path d="M96 64c-6 6-14 10-24 10H44c-13 0-24-11-24-24 0-9 5-16 12-20 0 0 4 10 18 10 19 0 28-10 28-10 0 8 6 14 14 14 2 0 4 0 6-1 1 2 2 5 2 7 0 6-2 11-6 14z" fill="#ffffff"/>
    <circle cx="52" cy="42" r="3.5" fill="#003d5c"/>
    <path d="M31 45c3 2 8 5 15 5" stroke="#00a8e8" stroke-width="3" stroke-linecap="round" fill="none"/>
  </g>
</svg>

